<svg width="32" height="32" viewBox="0 0 32 32" fill="none" xmlns="http://www.w3.org/2000/svg">
  <!-- Bright background for visibility -->
  <rect width="32" height="32" fill="#ffffff"/>
  
  <!-- Calendar background - bright blue -->
  <rect x="2" y="4" width="28" height="26" rx="3" fill="#2563eb" stroke="#1d4ed8" stroke-width="2"/>
  
  <!-- Calendar header - darker blue -->
  <rect x="2" y="4" width="28" height="8" rx="3" fill="#1d4ed8"/>
  
  <!-- Calendar holes -->
  <circle cx="8" cy="2" r="2" fill="#374151"/>
  <circle cx="24" cy="2" r="2" fill="#374151"/>
  
  <!-- Calendar rings -->
  <rect x="6" y="0" width="4" height="6" rx="2" fill="#374151"/>
  <rect x="22" y="0" width="4" height="6" rx="2" fill="#374151"/>
  
  <!-- Large "SC" text in calendar header -->
  <text x="16" y="10" font-family="Arial, sans-serif" font-size="8" font-weight="bold" fill="white" text-anchor="middle">SC</text>
  
  <!-- Calendar grid -->
  <g fill="white">
    <!-- Week 1 -->
    <rect x="5" y="16" width="4" height="3" rx="1"/>
    <rect x="11" y="16" width="4" height="3" rx="1"/>
    <rect x="17" y="16" width="4" height="3" rx="1"/>
    <rect x="23" y="16" width="4" height="3" rx="1"/>
    
    <!-- Week 2 -->
    <rect x="5" y="21" width="4" height="3" rx="1"/>
    <rect x="11" y="21" width="4" height="3" rx="1"/>
    <rect x="17" y="21" width="4" height="3" rx="1"/>
    <rect x="23" y="21" width="4" height="3" rx="1"/>
    
    <!-- Week 3 -->
    <rect x="5" y="26" width="4" height="3" rx="1"/>
    <rect x="11" y="26" width="4" height="3" rx="1"/>
  </g>
  
  <!-- Highlighted date (today) - bright yellow -->
  <rect x="17" y="26" width="4" height="3" rx="1" fill="#fbbf24"/>
  
  <!-- AI indicator - bright green dot -->
  <circle cx="27" cy="7" r="2.5" fill="#10b981"/>
</svg>
